<?xml version="1.0" encoding="UTF-8"?>
<svg version="1.1" xmlns="http://www.w3.org/2000/svg" width="1200" height="1072">
<path d="M0 0 C1.06538671 0.00042423 2.13077342 0.00084846 3.22844458 0.00128555 C10.57343924 0.00426327 17.91843354 0.00775431 25.26342773 0.01171875 C26.63294372 0.01245518 26.63294372 0.01245518 28.03012669 0.01320648 C45.54092685 0.02303694 63.05170417 0.04370487 80.5625 0.0625 C80.5625 38.3425 80.5625 76.6225 80.5625 116.0625 C74.2925 118.3725 68.0225 120.6825 61.5625 123.0625 C51.41219043 130.65935566 51.41219043 130.65935566 46.984375 141.96484375 C46.62113619 148.5113978 48.01381685 154.12849169 50.1328125 160.23046875 C50.39838959 161.00988327 50.66396667 161.78929779 50.93759155 162.59233093 C54.15200112 171.9283178 57.66786039 181.15093391 61.1875 190.375 C61.92968996 192.32862057 62.67145862 194.28240124 63.4128418 196.23632812 C64.98438104 200.37760967 66.55743199 204.5183125 68.13134766 208.65869141 C71.81241465 218.34821326 75.46752187 228.04753425 79.12445068 237.7461853 C81.2344064 243.34154813 83.34582909 248.93635738 85.45703125 254.53125 C86.30941495 256.79036179 87.16179126 259.04947637 88.01416016 261.30859375 C91.78093764 271.29187743 95.54824721 281.27496033 99.31552124 291.25805664 C101.39786972 296.77619604 103.48018307 302.2943487 105.5625 307.8125 C106.39583317 310.0208334 107.2291665 312.22916673 108.0625 314.4375 C113.06250001 327.68750003 113.06250001 327.68750003 114.31228638 330.99943542 C115.14633044 333.20965118 115.98037586 335.41986643 116.81442261 337.63008118 C118.88689271 343.12210927 120.95934008 348.61414594 123.03173828 354.10620117 C126.91111164 364.38684216 130.79071198 374.66739733 134.67108154 384.94766235 C136.48930291 389.76471779 138.30740012 394.58182007 140.12548828 399.39892578 C140.98610355 401.67905979 141.84677858 403.95917125 142.70751953 406.23925781 C143.90673063 409.4159571 145.10572894 412.59273664 146.3046875 415.76953125 C146.64764862 416.67786209 146.99060974 417.58619293 147.34396362 418.52204895 C150.42910031 426.69759185 153.49615135 434.87989677 156.5625 443.0625 C164.75612494 421.68990827 172.89177272 400.29655141 180.95120621 378.87301254 C182.33882367 375.18504038 183.72743498 371.49744244 185.1159668 367.80981445 C186.85508847 363.19096189 188.59414007 358.57208303 190.33277893 353.95304871 C194.31499349 343.37373656 198.30090885 332.79582455 202.2890625 322.21875 C212.00494126 296.44948281 221.71379494 270.67777922 231.37219238 244.88690186 C237.74600303 227.86867953 244.12924838 210.85414588 250.5836792 193.86630249 C251.26568827 192.07089693 251.94691119 190.27519249 252.6272583 188.47915649 C258.45237932 173.10914124 258.45237932 173.10914124 261.80444336 165.78881836 C265.66688434 156.99290203 267.95533644 145.41710228 264.49609375 136.23046875 C257.54275134 123.59319522 245.97375771 121.00348968 232.5625 116.0625 C232.5625 77.7825 232.5625 39.5025 232.5625 0.0625 C404.1625 0.0625 575.7625 0.0625 752.5625 0.0625 C752.5625 37.6825 752.5625 75.3025 752.5625 114.0625 C743.6525 119.0125 743.6525 119.0125 734.5625 124.0625 C730.72901409 127.25545031 730.72901409 127.25545031 727.09375 130.6640625 C725.5625 132.0625 725.5625 132.0625 723.5625 132.0625 C723.19125 132.92101562 723.19125 132.92101562 722.8125 133.796875 C721.369206 136.41284537 719.6525239 138.17768987 717.5625 140.3125 C713.71831275 144.52074351 710.52797647 148.86121826 707.5 153.6875 C707.12552734 154.27692383 706.75105469 154.86634766 706.36523438 155.47363281 C698.09830937 168.96879137 692.38992223 183.25165389 687.09979248 198.11160278 C685.04574689 203.87879718 682.95706378 209.63350036 680.875 215.390625 C680.44037445 216.59533951 680.0057489 217.80005402 679.55795288 219.04127502 C674.77964143 232.2714054 669.86446795 245.44966164 664.9375 258.625 C664.01434375 261.09584326 663.09124866 263.56670938 662.16821289 266.03759766 C660.75273117 269.82626803 659.33694911 273.61482576 657.92042542 277.40310669 C654.46109408 286.65475346 651.00832118 295.90883074 647.55859375 305.1640625 C633.97506674 341.60400646 620.33967889 378.02431653 606.67625427 414.43437195 C602.71770387 424.98308136 598.76060762 435.53233516 594.8046875 446.08203125 C594.52642057 446.8241152 594.24815365 447.56619915 593.96145439 448.33077049 C592.55666929 452.07708337 591.1519098 455.82340585 589.74716187 459.56973267 C587.22059849 466.30779562 584.69380819 473.04577349 582.16703606 479.78375816 C580.76157603 483.53161657 579.35613055 487.27948044 577.95068359 491.02734375 C577.387024 492.53043622 576.82336433 494.03352867 576.25970459 495.53662109 C575.98003593 496.28240417 575.70036728 497.02818726 575.41222382 497.79656982 C574.55934143 500.07092285 573.70645905 502.34527588 572.85357666 504.61962891 C572.5708468 505.37357532 572.28811693 506.12752172 571.9968195 506.90431499 C571.42494261 508.4293198 570.85306545 509.95432451 570.28118801 511.47932911 C568.85231317 515.28965832 567.42344314 519.09998933 565.99458313 522.9103241 C563.43825376 529.72726228 560.88189153 536.54418812 558.32534504 543.36104488 C556.92260238 547.10136487 555.51988744 550.84169525 554.1171875 554.58203125 C553.84170767 555.31660364 553.56622784 556.05117603 553.28240013 556.80800819 C549.58543135 566.66621008 545.88992916 576.52496041 542.19568062 586.38418198 C539.96413831 592.33958629 537.73220344 598.29484347 535.5 604.25 C535.25657993 604.89940552 535.01315987 605.54881104 534.76236343 606.21789551 C526.17333853 629.13084953 517.55033026 652.03090804 508.91671753 674.92709351 C500.863015 696.28583125 492.83436004 717.65380895 484.82555389 739.02941895 C476.63747127 760.88307941 468.4206968 782.72579743 460.1875 804.5625 C452.57041139 824.76599527 444.95831781 844.97129661 437.375 865.1875 C437.01827209 866.13794189 436.66154419 867.08838379 436.29400635 868.06762695 C434.35317361 873.23938274 432.41626612 878.41257306 430.4859314 883.58825684 C429.85485435 885.27916541 429.22266213 886.9696581 428.58950806 888.65979004 C427.63197262 891.21731744 426.678776 893.77642459 425.7265625 896.3359375 C425.44307449 897.0908548 425.15958649 897.84577209 424.86750793 898.62356567 C418.78334753 914.95653711 418.78334753 914.95653711 418.5625 932.0625 C422.47865783 939.53334991 422.47865783 939.53334991 439.5625 947.0625 C439.5625 983.6925 439.5625 1020.3225 439.5625 1058.0625 C253.1125 1058.0625 66.6625 1058.0625 -125.4375 1058.0625 C-125.4375 1021.1025 -125.4375 984.1425 -125.4375 946.0625 C-117.0225 942.1025 -117.0225 942.1025 -108.4375 938.0625 C-104.21978035 933.84478035 -103.44018217 931.7245597 -103.4375 926.0625 C-106.97250274 900.23900543 -120.06901686 874.34651508 -129.34934998 850.1424408 C-132.77669004 841.19460162 -136.14430149 832.22490246 -139.5 823.25 C-145.48269443 807.26020575 -151.49523956 791.28179869 -157.52079773 775.30810928 C-158.25286878 773.36739488 -158.98490009 771.42666549 -159.71691895 769.4859314 C-160.71160427 766.84881926 -161.70629261 764.21170827 -162.70098877 761.57460022 C-162.95069679 760.91258165 -163.20040482 760.25056309 -163.45767975 759.56848335 C-163.96665918 758.21910875 -164.47564666 756.86973717 -164.98464203 755.52036858 C-170.80494468 740.09047039 -176.62016164 724.65865712 -182.43462753 709.22655869 C-183.52628078 706.32923042 -184.61796409 703.43191347 -185.70964718 700.53459644 C-187.91063512 694.69319389 -190.11159415 688.85178045 -192.31252384 683.01035595 C-196.39875829 672.16520834 -200.48523561 661.32015226 -204.57183838 650.47514343 C-205.11250841 649.04031382 -205.65317817 647.60548411 -206.19384766 646.1706543 C-206.46137344 645.460694 -206.72889923 644.7507337 -207.00453186 644.01925945 C-208.62835015 639.70993564 -210.25208642 635.40058094 -211.87575531 631.09120083 C-213.23094755 627.49438498 -214.58616897 623.89758013 -215.94140625 620.30078125 C-216.20966972 619.58880899 -216.4779332 618.87683674 -216.75432587 618.14328957 C-220.53293325 608.11503284 -224.31320303 598.08740407 -228.09452629 588.06017113 C-242.21997645 550.60174216 -256.3014846 513.1270426 -270.34934998 475.63945007 C-275.70004099 461.36084794 -281.05397289 447.08346208 -286.40842152 432.80626869 C-288.37507518 427.56231718 -290.34151978 422.31828731 -292.30786133 417.07421875 C-297.67187394 402.76900758 -303.0368883 388.46417389 -308.40461159 374.16035461 C-319.74974438 343.92749806 -331.08455166 313.69082839 -342.375 283.4375 C-342.63301014 282.74615589 -342.89102028 282.05481178 -343.15684891 281.34251785 C-348.84318066 266.10452765 -354.51770915 250.86222814 -360.1640625 235.609375 C-360.6199324 234.37792755 -361.07580231 233.1464801 -361.54548645 231.87771606 C-363.66460861 226.15154847 -365.78188508 220.42470683 -367.89624023 214.69677734 C-371.4852139 204.97921721 -375.09095707 195.26807612 -378.75390625 185.578125 C-379.06868423 184.73927765 -379.38346222 183.9004303 -379.70777893 183.03616333 C-386.90441287 164.09022895 -397.11324116 147.42926406 -411.4375 133.0625 C-412.14132812 132.33546875 -412.84515625 131.6084375 -413.5703125 130.859375 C-420.56637271 124.10272369 -430.18955793 118.14514736 -439.4375 115.0625 C-439.4375 77.4425 -439.4375 39.8225 -439.4375 1.0625 C-407.32903446 0.94954251 -407.32903446 0.94954251 -395.93688965 0.91004944 C-394.81028926 0.90614375 -394.81028926 0.90614375 -393.66092926 0.90215916 C-360.85924886 0.78853168 -328.05755403 0.67918024 -295.25585347 0.57154435 C-292.50866097 0.56252842 -289.7614685 0.55350139 -287.01427603 0.54447412 C-196.71972658 0.24798401 -106.42562652 -0.02836428 0 0 Z " fill="#FDFEFE" transform="translate(444.4375,6.9375)"/>
<path d="M0 0 C65.01 0 130.02 0 197 0 C195.15206584 5.54380248 193.32172618 10.87638708 191.14770508 16.26953125 C190.74683843 17.26759796 190.74683843 17.26759796 190.33787346 18.28582764 C189.76327027 19.71568039 189.18749324 21.1450619 188.61063194 22.57400513 C187.35968437 25.67298429 186.11475729 28.77437184 184.86938572 31.87559509 C184.21768069 33.49832143 183.56568165 35.12092971 182.91339779 36.74342346 C179.59152357 45.00799367 176.2993468 53.28425995 173.01171875 61.5625 C172.41966988 63.05262131 171.82759813 64.54273353 171.23550415 66.03283691 C170.01827746 69.09643109 168.80128296 72.16011737 167.58447266 75.22387695 C165.60883137 80.19825146 163.6325908 85.17238776 161.65625 90.14648438 C161.14446418 91.43456371 161.14446418 91.43456371 160.62233925 92.74866486 C159.92598865 94.50126195 159.22963663 96.25385848 158.53328323 98.00645447 C157.47758492 100.66350823 156.42193805 103.32058244 155.36630249 105.97766113 C148.43515924 123.42335428 141.49949976 140.86725085 134.56332397 158.3109436 C131.10716286 167.00280611 127.65120588 175.69474979 124.1953125 184.38671875 C123.85394697 185.24529165 123.51258144 186.10386456 123.16087151 186.98845482 C115.56391529 206.09580786 107.96913206 225.20402436 100.375 244.3125 C100.05702454 245.11259491 99.73904907 245.91268982 99.41143799 246.73703003 C96.52798081 253.99244852 93.64455803 261.24788067 90.76116943 268.50332642 C86.26019115 279.82909645 81.75905954 291.15480553 77.2578125 302.48046875 C76.93789211 303.28542597 76.61797173 304.09038319 76.28835678 304.91973305 C74.67207802 308.98647774 73.05579667 313.0532214 71.43951416 317.1199646 C68.53253615 324.43424214 65.62558104 331.74852879 62.71862411 339.06281471 C61.10408367 343.12521018 59.48954176 347.18760506 57.875 351.25 C57.22916666 352.875 56.58333333 354.5 55.9375 356.125 C54.64583333 359.375 53.35416667 362.625 52.0625 365.875 C51.58296969 367.08156014 51.58296969 367.08156014 51.09375191 368.31249523 C50.44791224 369.93751114 49.80207255 371.56252703 49.15623283 373.18754292 C47.54174611 377.24979947 45.92725988 381.31205621 44.31277466 385.37431335 C41.40537151 392.68972064 38.49796492 400.00512656 35.59053993 407.32052517 C33.97442002 411.38685956 32.358303 415.4531951 30.7421875 419.51953125 C30.42225704 420.32451365 30.10232658 421.12949604 29.77270126 421.95887184 C25.27490322 433.27587352 20.77726602 444.59293911 16.27973175 455.91004562 C2.34255147 490.97997575 -11.59708767 526.04892662 -25.54032898 561.11644745 C-35.90387858 587.18100655 -46.26569544 613.24625341 -56.625 639.3125 C-56.94297546 640.11259491 -57.26095093 640.91268982 -57.58856201 641.73703003 C-60.47201919 648.99244852 -63.35544197 656.24788067 -66.23883057 663.50332642 C-70.41655697 674.01570074 -74.59440398 684.52802712 -78.77237511 695.04030418 C-79.74284968 697.48213488 -80.71332105 699.92396686 -81.68379211 702.36579895 C-84.58125346 709.65617666 -87.47874204 716.94654355 -90.37632084 724.23687458 C-91.97615608 728.26207705 -93.5759732 732.28728672 -95.17578125 736.3125 C-95.49314932 737.11101568 -95.81051739 737.90953136 -96.13750267 738.73224449 C-100.52530391 749.77229143 -104.91228945 760.81266221 -109.29867554 771.85327148 C-111.74843137 778.0193381 -114.19841368 784.18531472 -116.64844322 790.35127258 C-118.30618182 794.52333216 -119.96379866 798.69544001 -121.62109375 802.86767578 C-129.71988453 823.25617416 -137.84121532 843.63542743 -146 864 C-148.22707948 861.77292052 -148.84365153 860.1955229 -149.9609375 857.27050781 C-150.34383942 856.27617737 -150.72674133 855.28184692 -151.12124634 854.25738525 C-151.7418544 852.62177643 -151.7418544 852.62177643 -152.375 850.953125 C-152.811539 849.81582947 -153.248078 848.67853394 -153.69784546 847.5067749 C-154.64208492 845.04524319 -155.58441896 842.58307797 -156.52362061 840.11962891 C-158.00973151 836.22215708 -159.50321737 832.32754118 -160.99853516 828.43359375 C-161.24848803 827.78266502 -161.4984409 827.1317363 -161.75596809 826.46108246 C-162.26268248 825.14156026 -162.769425 823.82204886 -163.27619553 822.50254822 C-164.04232395 820.5071304 -164.80779787 818.5114625 -165.57315063 816.51574707 C-170.12247579 804.65701482 -174.73589079 792.82387006 -179.375 781 C-180.11186296 779.12054234 -180.8486795 777.24106648 -181.58544922 775.36157227 C-182.66945711 772.59652876 -183.75356613 769.83152517 -184.83804321 767.06666565 C-188.61168617 757.44469455 -192.36918793 747.8164422 -196.125 738.1875 C-196.78433506 736.49739295 -197.44367748 734.80728877 -198.10302734 733.1171875 C-199.41284831 729.75963714 -200.72256567 726.40204639 -202.03222656 723.04443359 C-205.01989904 715.3851109 -208.00900757 707.72634859 -210.99798584 700.0675354 C-212.66538063 695.79504574 -214.33268585 691.52252113 -216 687.25 C-216.66666624 685.5416665 -217.3333329 683.83333317 -218 682.125 C-237.99999999 630.87500003 -237.99999999 630.87500003 -239.00004578 628.31237793 C-239.66655555 626.60444982 -240.33306963 624.89652338 -240.99958801 623.18859863 C-242.66869051 618.91157921 -244.33771764 614.6345304 -246.0065918 610.35742188 C-248.97746517 602.74366894 -251.9487914 595.13009502 -254.92306519 587.51766968 C-256.55326114 583.34526321 -258.1830085 579.17268163 -259.8125 575 C-260.13899536 574.16394226 -260.46549072 573.32788452 -260.80187988 572.4664917 C-265.90821439 559.38772895 -270.98709228 546.29846082 -276.05706787 533.20556641 C-283.06017838 515.121095 -290.10087325 497.05191632 -297.1875 479 C-297.60752289 477.93003784 -298.02754578 476.86007568 -298.46029663 475.75769043 C-299.30119381 473.6156782 -300.1421005 471.4736697 -300.98301697 469.33166504 C-301.39338699 468.2863562 -301.80375702 467.24104736 -302.2265625 466.1640625 C-302.83625633 464.61108459 -302.83625633 464.61108459 -303.45826721 463.0267334 C-307.33638969 453.14674191 -311.20362483 443.26252404 -315.0625 433.375 C-315.38217743 432.55594177 -315.70185486 431.73688354 -316.03121948 430.89300537 C-321.86253107 415.94808047 -327.65592243 400.98852216 -333.44900513 386.02874756 C-340.00636126 369.09923321 -346.62095893 352.19269712 -353.25915527 335.29473877 C-359.37977843 319.71197749 -365.45756622 304.11323884 -371.5 288.5 C-378.02131005 271.65038699 -384.58491002 254.81793276 -391.1875 238 C-391.60788544 236.92913147 -392.02827087 235.85826294 -392.46139526 234.75494385 C-393.30211098 232.61339002 -394.14283458 230.47183929 -394.98356628 228.33029175 C-395.59884941 226.76300827 -395.59884941 226.76300827 -396.2265625 225.1640625 C-396.63300491 224.12879425 -397.03944733 223.093526 -397.45820618 222.02688599 C-401.33635183 212.14684475 -405.20360492 202.26257506 -409.0625 192.375 C-409.38217743 191.55594177 -409.70185486 190.73688354 -410.03121948 189.89300537 C-415.05864409 177.00834261 -420.05816357 164.11294596 -425.05303955 151.21563721 C-425.4480365 150.19572693 -425.84303345 149.17581665 -426.25 148.125 C-426.64467468 147.10589539 -427.03934937 146.08679077 -427.44598389 145.0368042 C-434.48549158 126.86426907 -441.58679641 108.71639651 -448.7097168 90.57641602 C-449.53826439 88.46631476 -450.36679642 86.35620739 -451.1953125 84.24609375 C-451.60012344 83.21511063 -452.00493439 82.1841275 -452.42201233 81.12190247 C-457.14037961 69.10095352 -461.8329269 57.06994245 -466.52026367 45.03686523 C-469.47447324 37.45531273 -472.43773601 29.87770458 -475.43359375 22.3125 C-475.96086004 20.97908684 -476.48812253 19.64567217 -477.01538086 18.31225586 C-477.97460369 15.88701943 -478.93827897 13.46371718 -479.90454102 11.04125977 C-480.31760498 9.99768311 -480.73066895 8.95410645 -481.15625 7.87890625 C-481.51525391 6.9772876 -481.87425781 6.07566895 -482.24414062 5.14672852 C-483 3 -483 3 -483 1 C-418.98 1 -354.96 1 -289 1 C-289 8 -289 8 -291.34375 10.703125 C-292.38276751 11.56802512 -293.43576364 12.41632706 -294.5 13.25 C-309.05620448 25.67149393 -317.02131403 42.54519105 -321 61 C-321.19207031 61.763125 -321.38414062 62.52625 -321.58203125 63.3125 C-325.32780126 87.39745111 -317.30883852 108.90206007 -309 131 C-308.29955218 132.86780489 -307.5991994 134.73564542 -306.89892578 136.60351562 C-302.28647533 148.8969268 -297.6448553 161.17921727 -292.99279785 173.45768738 C-288.78902539 184.55325994 -284.59875152 195.65389921 -280.41131592 206.75564575 C-279.1789493 210.02266803 -277.94622174 213.28955389 -276.71337891 216.55639648 C-269.81600783 234.83362278 -262.92404405 253.1128866 -256.03256226 271.39233398 C-249.76451613 288.01807701 -243.49428457 304.64299287 -237.22033691 321.26651001 C-234.75788076 327.79120596 -232.29579106 334.31604021 -229.8336792 340.84086609 C-227.65043898 346.62659043 -225.46698934 352.41223562 -223.28320312 358.19775391 C-215.58179069 378.60223097 -215.58179069 378.60223097 -211.86083984 388.48144531 C-211.62122717 389.11761591 -211.38161449 389.75378651 -211.13474083 390.409235 C-210.16037909 392.99626016 -209.18605477 395.58329938 -208.21191025 398.17040634 C-205.452561 405.49838821 -202.68946908 412.82492284 -199.91699219 420.14794922 C-187.82503064 452.08808837 -176.01715355 484.07937441 -164.96124268 516.39697266 C-161.55109022 526.34711715 -158.04411612 536.26236989 -154.50979614 546.16900635 C-153.84215072 548.04077023 -153.1756874 549.91295621 -152.51046753 551.7855835 C-151.60375007 554.33731284 -150.69321358 556.88764163 -149.78125 559.4375 C-149.51236465 560.19523712 -149.24347931 560.95297424 -148.96644592 561.7336731 C-147.93713009 565.128292 -147.93713009 565.128292 -146 568 C-117.39640883 497.36135192 -117.39640883 497.36135192 -90 426.25 C-89.74892612 425.57812904 -89.49785225 424.90625809 -89.23917007 424.2140274 C-86.99057363 418.19318874 -84.74856513 412.16991043 -82.5138092 406.1439209 C-78.76655022 396.04080897 -74.98010347 385.95285049 -71.17578125 375.87109375 C-70.89029797 375.11448833 -70.60481468 374.35788292 -70.31068039 373.57835007 C-68.87838384 369.78276768 -67.44563207 365.98735733 -66.01269531 362.1920166 C-63.26145642 354.90407651 -60.51538034 347.61419088 -57.76953125 340.32421875 C-57.51189625 339.64027668 -57.25426125 338.95633461 -56.98881912 338.25166702 C-52.81529764 327.17173818 -48.6523968 316.0878633 -44.5 305 C-37.91951397 287.42857486 -31.30477277 269.87009527 -24.6875 252.3125 C-24.41157894 251.58038425 -24.13565788 250.84826851 -23.85137558 250.09396744 C-19.27828988 237.96003058 -14.70431784 225.82642787 -10.13026428 213.69285583 C-8.68453231 209.8577598 -7.23882422 206.02265477 -5.79316711 202.18753052 C-4.64875312 199.15157344 -3.50419577 196.11567046 -2.35954285 193.07980347 C0.42099224 185.7046367 3.19918344 178.32860108 5.97241211 170.95068359 C7.02958568 168.13892235 8.08698201 165.32724497 9.14453125 162.515625 C9.39964666 161.83726719 9.65476208 161.15890938 9.91760826 160.45999527 C12.81490637 152.75896435 15.7328646 145.06657242 18.7000885 137.39213562 C20.11702934 133.7269689 21.52377686 130.05793121 22.92984009 126.38858032 C23.82151254 124.07620888 24.72972965 121.77090808 25.6394043 119.46557617 C30.98786894 105.6530885 34.84162501 90.71883604 34.5 75.8125 C34.47969727 74.44508667 34.47969727 74.44508667 34.45898438 73.05004883 C33.84851714 52.75378771 26.09456534 32.80171535 12 18 C8.86494008 15.07520694 5.61545134 12.31820901 2.2734375 9.6328125 C0 7 0 7 0 0 Z " fill="#002664" transform="translate(747,75)"/>
<path d="M0 0 C1.06538671 0.00042423 2.13077342 0.00084846 3.22844458 0.00128555 C10.57343924 0.00426327 17.91843354 0.00775431 25.26342773 0.01171875 C26.63294372 0.01245518 26.63294372 0.01245518 28.03012669 0.01320648 C45.54092685 0.02303694 63.05170417 0.04370487 80.5625 0.0625 C80.5625 38.3425 80.5625 76.6225 80.5625 116.0625 C74.2925 118.3725 68.0225 120.6825 61.5625 123.0625 C51.41219043 130.65935566 51.41219043 130.65935566 46.984375 141.96484375 C46.62113619 148.5113978 48.01381685 154.12849169 50.1328125 160.23046875 C50.39838959 161.00988327 50.66396667 161.78929779 50.93759155 162.59233093 C54.15200112 171.9283178 57.66786039 181.15093391 61.1875 190.375 C61.92968996 192.32862057 62.67145862 194.28240124 63.4128418 196.23632812 C64.98438104 200.37760967 66.55743199 204.5183125 68.13134766 208.65869141 C71.81241465 218.34821326 75.46752187 228.04753425 79.12445068 237.7461853 C81.2344064 243.34154813 83.34582909 248.93635738 85.45703125 254.53125 C86.30941495 256.79036179 87.16179126 259.04947637 88.01416016 261.30859375 C91.78093764 271.29187743 95.54824721 281.27496033 99.31552124 291.25805664 C101.39786972 296.77619604 103.48018307 302.2943487 105.5625 307.8125 C106.39583317 310.0208334 107.2291665 312.22916673 108.0625 314.4375 C113.06250001 327.68750003 113.06250001 327.68750003 114.31228638 330.99943542 C115.14633044 333.20965118 115.98037586 335.41986643 116.81442261 337.63008118 C118.88689271 343.12210927 120.95934008 348.61414594 123.03173828 354.10620117 C126.91111164 364.38684216 130.79071198 374.66739733 134.67108154 384.94766235 C136.48930291 389.76471779 138.30740012 394.58182007 140.12548828 399.39892578 C140.98610355 401.67905979 141.84677858 403.95917125 142.70751953 406.23925781 C143.90673063 409.4159571 145.10572894 412.59273664 146.3046875 415.76953125 C146.64764862 416.67786209 146.99060974 417.58619293 147.34396362 418.52204895 C150.42910031 426.69759185 153.49615135 434.87989677 156.5625 443.0625 C164.75612494 421.68990827 172.89177272 400.29655141 180.95120621 378.87301254 C182.33882367 375.18504038 183.72743498 371.49744244 185.1159668 367.80981445 C186.85508847 363.19096189 188.59414007 358.57208303 190.33277893 353.95304871 C194.31499349 343.37373656 198.30090885 332.79582455 202.2890625 322.21875 C212.00494126 296.44948281 221.71379494 270.67777922 231.37219238 244.88690186 C237.74600303 227.86867953 244.12924838 210.85414588 250.5836792 193.86630249 C251.26568827 192.07089693 251.94691119 190.27519249 252.6272583 188.47915649 C258.45237932 173.10914124 258.45237932 173.10914124 261.80444336 165.78881836 C265.66688434 156.99290203 267.95533644 145.41710228 264.49609375 136.23046875 C257.54275134 123.59319522 245.97375771 121.00348968 232.5625 116.0625 C232.5625 77.7825 232.5625 39.5025 232.5625 0.0625 C404.1625 0.0625 575.7625 0.0625 752.5625 0.0625 C752.5625 37.6825 752.5625 75.3025 752.5625 114.0625 C743.6525 119.0125 743.6525 119.0125 734.5625 124.0625 C730.72901409 127.25545031 730.72901409 127.25545031 727.09375 130.6640625 C725.5625 132.0625 725.5625 132.0625 723.5625 132.0625 C723.19125 132.92101562 723.19125 132.92101562 722.8125 133.796875 C721.369206 136.41284537 719.6525239 138.17768987 717.5625 140.3125 C713.71831275 144.52074351 710.52797647 148.86121826 707.5 153.6875 C707.12552734 154.27692383 706.75105469 154.86634766 706.36523438 155.47363281 C698.09830937 168.96879137 692.38992223 183.25165389 687.09979248 198.11160278 C685.04574689 203.87879718 682.95706378 209.63350036 680.875 215.390625 C680.44037445 216.59533951 680.0057489 217.80005402 679.55795288 219.04127502 C674.77964143 232.2714054 669.86446795 245.44966164 664.9375 258.625 C664.01434375 261.09584326 663.09124866 263.56670938 662.16821289 266.03759766 C660.75273117 269.82626803 659.33694911 273.61482576 657.92042542 277.40310669 C654.46109408 286.65475346 651.00832118 295.90883074 647.55859375 305.1640625 C633.97506674 341.60400646 620.33967889 378.02431653 606.67625427 414.43437195 C602.71770387 424.98308136 598.76060762 435.53233516 594.8046875 446.08203125 C594.52642057 446.8241152 594.24815365 447.56619915 593.96145439 448.33077049 C592.55666929 452.07708337 591.1519098 455.82340585 589.74716187 459.56973267 C587.22059849 466.30779562 584.69380819 473.04577349 582.16703606 479.78375816 C580.76157603 483.53161657 579.35613055 487.27948044 577.95068359 491.02734375 C577.387024 492.53043622 576.82336433 494.03352867 576.25970459 495.53662109 C575.98003593 496.28240417 575.70036728 497.02818726 575.41222382 497.79656982 C574.55934143 500.07092285 573.70645905 502.34527588 572.85357666 504.61962891 C572.5708468 505.37357532 572.28811693 506.12752172 571.9968195 506.90431499 C571.42494261 508.4293198 570.85306545 509.95432451 570.28118801 511.47932911 C568.85231317 515.28965832 567.42344314 519.09998933 565.99458313 522.9103241 C563.43825376 529.72726228 560.88189153 536.54418812 558.32534504 543.36104488 C556.92260238 547.10136487 555.51988744 550.84169525 554.1171875 554.58203125 C553.84170767 555.31660364 553.56622784 556.05117603 553.28240013 556.80800819 C549.58543135 566.66621008 545.88992916 576.52496041 542.19568062 586.38418198 C539.96413831 592.33958629 537.73220344 598.29484347 535.5 604.25 C535.25657993 604.89940552 535.01315987 605.54881104 534.76236343 606.21789551 C526.17333853 629.13084953 517.55033026 652.03090804 508.91671753 674.92709351 C500.863015 696.28583125 492.83436004 717.65380895 484.82555389 739.02941895 C476.63747127 760.88307941 468.4206968 782.72579743 460.1875 804.5625 C452.57041139 824.76599527 444.95831781 844.97129661 437.375 865.1875 C437.01827209 866.13794189 436.66154419 867.08838379 436.29400635 868.06762695 C434.35317361 873.23938274 432.41626612 878.41257306 430.4859314 883.58825684 C429.85485435 885.27916541 429.22266213 886.9696581 428.58950806 888.65979004 C427.63197262 891.21731744 426.678776 893.77642459 425.7265625 896.3359375 C425.44307449 897.0908548 425.15958649 897.84577209 424.86750793 898.62356567 C418.78334753 914.95653711 418.78334753 914.95653711 418.5625 932.0625 C422.47865783 939.53334991 422.47865783 939.53334991 439.5625 947.0625 C439.5625 983.6925 439.5625 1020.3225 439.5625 1058.0625 C253.1125 1058.0625 66.6625 1058.0625 -125.4375 1058.0625 C-125.4375 1021.1025 -125.4375 984.1425 -125.4375 946.0625 C-117.0225 942.1025 -117.0225 942.1025 -108.4375 938.0625 C-104.21978035 933.84478035 -103.44018217 931.7245597 -103.4375 926.0625 C-106.97250274 900.23900543 -120.06901686 874.34651508 -129.34934998 850.1424408 C-132.77669004 841.19460162 -136.14430149 832.22490246 -139.5 823.25 C-145.48269443 807.26020575 -151.49523956 791.28179869 -157.52079773 775.30810928 C-158.25286878 773.36739488 -158.98490009 771.42666549 -159.71691895 769.4859314 C-160.71160427 766.84881926 -161.70629261 764.21170827 -162.70098877 761.57460022 C-162.95069679 760.91258165 -163.20040482 760.25056309 -163.45767975 759.56848335 C-163.96665918 758.21910875 -164.47564666 756.86973717 -164.98464203 755.52036858 C-170.80494468 740.09047039 -176.62016164 724.65865712 -182.43462753 709.22655869 C-183.52628078 706.32923042 -184.61796409 703.43191347 -185.70964718 700.53459644 C-187.91063512 694.69319389 -190.11159415 688.85178045 -192.31252384 683.01035595 C-196.39875829 672.16520834 -200.48523561 661.32015226 -204.57183838 650.47514343 C-205.11250841 649.04031382 -205.65317817 647.60548411 -206.19384766 646.1706543 C-206.46137344 645.460694 -206.72889923 644.7507337 -207.00453186 644.01925945 C-208.62835015 639.70993564 -210.25208642 635.40058094 -211.87575531 631.09120083 C-213.23094755 627.49438498 -214.58616897 623.89758013 -215.94140625 620.30078125 C-216.20966972 619.58880899 -216.4779332 618.87683674 -216.75432587 618.14328957 C-220.53293325 608.11503284 -224.31320303 598.08740407 -228.09452629 588.06017113 C-242.21997645 550.60174216 -256.3014846 513.1270426 -270.34934998 475.63945007 C-275.70004099 461.36084794 -281.05397289 447.08346208 -286.40842152 432.80626869 C-288.37507518 427.56231718 -290.34151978 422.31828731 -292.30786133 417.07421875 C-297.67187394 402.76900758 -303.0368883 388.46417389 -308.40461159 374.16035461 C-319.74974438 343.92749806 -331.08455166 313.69082839 -342.375 283.4375 C-342.63301014 282.74615589 -342.89102028 282.05481178 -343.15684891 281.34251785 C-348.84318066 266.10452765 -354.51770915 250.86222814 -360.1640625 235.609375 C-360.6199324 234.37792755 -361.07580231 233.1464801 -361.54548645 231.87771606 C-363.66460861 226.15154847 -365.78188508 220.42470683 -367.89624023 214.69677734 C-371.4852139 204.97921721 -375.09095707 195.26807612 -378.75390625 185.578125 C-379.06868423 184.73927765 -379.38346222 183.9004303 -379.70777893 183.03616333 C-386.90441287 164.09022895 -397.11324116 147.42926406 -411.4375 133.0625 C-412.14132812 132.33546875 -412.84515625 131.6084375 -413.5703125 130.859375 C-420.56637271 124.10272369 -430.18955793 118.14514736 -439.4375 115.0625 C-439.4375 77.4425 -439.4375 39.8225 -439.4375 1.0625 C-407.32903446 0.94954251 -407.32903446 0.94954251 -395.93688965 0.91004944 C-394.81028926 0.90614375 -394.81028926 0.90614375 -393.66092926 0.90215916 C-360.85924886 0.78853168 -328.05755403 0.67918024 -295.25585347 0.57154435 C-292.50866097 0.56252842 -289.7614685 0.55350139 -287.01427603 0.54447412 C-196.71972658 0.24798401 -106.42562652 -0.02836428 0 0 Z M-413.4375 26.0625 C-413.4375 50.1525 -413.4375 74.2425 -413.4375 99.0625 C-409.8075 101.3725 -406.1775 103.6825 -402.4375 106.0625 C-399.81994794 108.20858353 -397.36979603 110.29804494 -394.9375 112.625 C-394.30295898 113.22795898 -393.66841797 113.83091797 -393.01464844 114.45214844 C-369.32916036 137.44486883 -357.05658895 167.81338543 -346.29574585 198.35421753 C-345.83224228 199.66968063 -345.83224228 199.66968063 -345.359375 201.01171875 C-345.04416901 201.9063382 -344.72896301 202.80095764 -344.40420532 203.72268677 C-340.64373579 214.36124374 -336.70068347 224.93091794 -332.75 235.5 C-332.36031036 236.54356659 -331.97062073 237.58713318 -331.56912231 238.662323 C-328.77042451 246.15600374 -325.96559057 253.64737784 -323.158638 261.13796997 C-322.41796177 263.11464245 -321.67743609 265.09137127 -320.93695068 267.06811523 C-314.19878111 285.05558718 -307.45358344 303.04041896 -300.7051239 321.02403259 C-296.68752669 331.73037596 -292.6712714 342.43722165 -288.65625 353.14453125 C-288.37861942 353.88491827 -288.10098885 354.62530529 -287.81494522 355.38812828 C-286.41504095 359.12142539 -285.01516235 362.85473211 -283.61529541 366.58804321 C-281.09470047 373.31019138 -278.57387789 380.03225419 -276.05307388 386.75432396 C-274.64832911 390.50027502 -273.24359889 394.24623154 -271.83886719 397.9921875 C-271.27404792 399.49837242 -270.70922859 401.00455732 -270.14440918 402.51074219 C-266.70715352 411.67675727 -266.70715352 411.67675727 -265.83738995 413.99612713 C-265.25613272 415.54614618 -264.67487522 417.09616513 -264.09361744 418.64618397 C-262.64217294 422.51669893 -261.19073324 426.38721568 -259.73930359 430.25773621 C-257.15723067 437.14332366 -254.57512575 444.02889909 -251.99283504 450.91440487 C-250.59285678 454.6473551 -249.19290534 458.38031539 -247.79296875 462.11328125 C-247.52032511 462.84029047 -247.24768147 463.56729969 -246.96677589 464.31633949 C-243.30571096 474.07879603 -239.64630999 483.84187408 -235.98828125 493.60546875 C-223.8444214 526.01534053 -211.65100173 558.40637069 -199.44084167 590.79130554 C-195.59880075 600.98155605 -191.75789651 611.17223426 -187.91796875 621.36328125 C-187.65042597 622.07332998 -187.38288319 622.78337872 -187.10723305 623.51494408 C-185.75729325 627.09765367 -184.40737424 630.68037109 -183.0574646 634.26309204 C-180.62186613 640.7272498 -178.18608283 647.19133791 -175.75031471 653.65543175 C-174.39603569 657.24945169 -173.04176844 660.84347607 -171.6875 664.4375 C-171.14583339 665.87500002 -170.60416672 667.31250002 -170.0625 668.75 C-160.3125 694.625 -150.5625 720.5 -140.8125 746.375 C-140.410304 747.44236594 -140.410304 747.44236594 -139.99998283 748.53129482 C-139.45837274 749.96864517 -138.9167633 751.40599576 -138.3751545 752.8433466 C-137.02012753 756.43938827 -135.66508931 760.0354257 -134.31002808 763.63145447 C-131.88278934 770.07283478 -129.45562446 776.51424286 -127.02889061 782.95581341 C-125.68858781 786.51353233 -124.34821765 790.07122588 -123.0078125 793.62890625 C-122.74187412 794.33475924 -122.47593575 795.04061222 -122.20193863 795.76785469 C-118.50463462 805.58083722 -114.8041887 815.39263024 -111.10150146 825.20358276 C-109.0281866 830.69725589 -106.95572733 836.19125168 -104.88344955 841.68531609 C-103.47770219 845.41206314 -102.07148524 849.1386314 -100.6640625 852.86474609 C-95.68136543 866.05702128 -90.69968372 879.2497038 -85.8515625 892.4921875 C-85.53637665 893.34787827 -85.2211908 894.20356903 -84.89645386 895.08518982 C-79.24836621 910.61572144 -74.42063517 928.68809195 -80.5 944.8125 C-84.93941656 953.72863914 -90.56397484 957.1327638 -99.4375 962.0625 C-99.4375 985.1625 -99.4375 1008.2625 -99.4375 1032.0625 C69.8525 1032.0625 239.1425 1032.0625 413.5625 1032.0625 C413.5625 1008.9625 413.5625 985.8625 413.5625 962.0625 C410.5925 960.0825 407.6225 958.1025 404.5625 956.0625 C396.93041776 948.43041776 393.11243027 941.37651923 392.90356445 930.45239258 C392.92036255 928.89814575 392.92036255 928.89814575 392.9375 927.3125 C392.9480542 926.21123779 392.9586084 925.10997559 392.96948242 923.9753418 C393.42359239 908.11352091 399.10110644 894.18211004 404.51953125 879.44140625 C404.75535038 878.79908428 404.99116951 878.15676231 405.23413467 877.49497604 C410.77066289 862.42009441 416.43538106 847.39392765 422.11239624 832.371521 C424.40932419 826.29163249 426.70246601 820.21031374 428.99623871 814.12923431 C429.57639476 812.59121627 430.15659996 811.05321677 430.73685455 809.5152359 C436.19865812 795.03843841 441.63544853 780.55236364 447.0625 766.0625 C455.08312813 744.65126276 463.1387399 723.25338399 471.20565796 701.85955811 C479.34667441 680.2687776 487.46669108 658.67027151 495.5625 637.0625 C503.53852806 615.77446138 511.53844221 594.49558084 519.55970383 573.22454453 C531.28370794 542.13422453 542.96275611 511.02721633 554.62153625 479.91238403 C558.578146 469.35312172 562.53894689 458.79544183 566.50336075 448.23910713 C578.92830827 415.15327193 591.30023603 382.0485515 603.59167194 348.91287136 C610.09243829 331.38846686 616.61520413 313.8727439 623.1875 296.375 C628.72449382 281.63100031 634.25411216 266.88438219 639.75 252.125 C640.07697876 251.24696716 640.40395752 250.36893433 640.74084473 249.46429443 C645.36577983 237.03797675 649.93483017 224.5919655 654.47610474 212.13485718 C656.8962383 205.50209485 659.32909709 198.87399819 661.7623291 192.24603271 C662.51319119 190.19705551 663.26060799 188.14686002 664.00683594 186.09619141 C677.1212077 150.18825138 694.78409485 120.30738361 726.5625 98.0625 C726.5625 74.3025 726.5625 50.5425 726.5625 26.0625 C572.1225 26.0625 417.6825 26.0625 258.5625 26.0625 C258.5625 49.8225 258.5625 73.5825 258.5625 98.0625 C262.1925 100.0425 265.8225 102.0225 269.5625 104.0625 C280.46298393 111.83525045 288.20389232 123.16442178 291.1640625 136.29296875 C293.21764229 150.56736163 289.48112822 162.79142362 284.6796875 176.03125 C284.28684067 177.11794983 283.89399384 178.20464966 283.48924255 179.32427979 C278.59516409 192.80453688 273.5217776 206.21749536 268.44946289 219.63137817 C267.02928748 223.38846127 265.6114151 227.14641334 264.19335938 230.90429688 C262.12254341 236.39153348 260.05114428 241.87854917 257.97894859 247.36526489 C254.31376984 257.07004359 250.65339291 266.7766243 246.99609375 276.484375 C246.72984444 277.191084 246.46359512 277.89779301 246.18927765 278.62591743 C244.84911168 282.18321053 243.50903405 285.7405369 242.16900635 289.29788208 C239.74434819 295.73450027 237.31911507 302.17090182 234.89383698 308.60728645 C234.35291192 310.04283486 233.81199293 311.47838554 233.27108002 312.91393852 C229.42272488 323.12721999 225.57303711 333.33999841 221.72259712 343.55249405 C219.23144467 350.15988794 216.74062149 356.76740595 214.25 363.375 C213.84205515 364.45726868 213.84205515 364.45726868 213.42586899 365.56140137 C206.31779386 384.41962582 199.22325696 403.28282105 192.15188599 422.15484619 C188.29107865 432.45826793 184.42752431 442.76065946 180.5625 453.0625 C180.31446373 453.72365562 180.06642746 454.38481125 179.81087494 455.06600189 C176.60067299 463.62265845 173.38802783 472.17838986 170.16989994 480.73206902 C168.86657407 484.19635056 167.56414678 487.66096304 166.2640686 491.12646484 C164.83009794 494.94872814 163.39182904 498.76935958 161.953125 502.58984375 C161.30633034 504.31659584 161.30633034 504.31659584 160.64646912 506.07823181 C160.25298782 507.12096756 159.85950653 508.16370331 159.45410156 509.23803711 C158.93955414 510.60683266 158.93955414 510.60683266 158.41461182 512.00328064 C157.5625 514.0625 157.5625 514.0625 156.5625 515.0625 C155.90445964 513.31616211 155.24641927 511.56982422 154.58837891 509.82348633 C154.15072708 508.66202591 153.71307526 507.50056549 153.26216125 506.3039093 C152.25987176 503.64398728 151.25758304 500.98406495 150.2552948 498.32414246 C147.68216322 491.49543964 145.10902654 484.66673874 142.53587055 477.83804512 C141.02000448 473.81520828 139.50414197 469.7923701 137.98828125 465.76953125 C137.68049177 464.95271 137.37270229 464.13588875 137.05558586 463.29431534 C132.92772819 452.33965975 128.80003216 441.38494328 124.6724968 430.43016624 C107.38625482 384.55131507 90.0970095 338.6735976 72.78585815 292.80413818 C71.56882345 289.57925579 70.35189657 286.35433274 69.13500977 283.12939453 C68.73195114 282.06123505 68.32889252 280.99307556 67.91362 279.89254761 C67.09111581 277.71280081 66.26861624 275.53305226 65.44612122 273.353302 C63.18748258 267.3678015 60.92831268 261.38250202 58.66845703 255.39746094 C38.53591899 202.07689897 38.53591899 202.07689897 31.63034058 183.565979 C31.09699532 182.13715744 30.56263975 180.70871247 30.02713013 179.28070068 C22.99037431 160.50513145 17.21556707 142.54600338 25.78125 123.328125 C31.0398937 112.75240822 38.94355584 105.21159057 49.5625 100.0625 C51.5425 99.4025 53.5225 98.7425 55.5625 98.0625 C55.5625 74.3025 55.5625 50.5425 55.5625 26.0625 C-99.2075 26.0625 -253.9775 26.0625 -413.4375 26.0625 Z " fill="#012764" transform="translate(444.4375,6.9375)"/>
<path d="M0 0 C1.01673766 0.00092179 2.03347532 0.00184359 3.08102322 0.00279331 C4.24355114 0.00141865 5.40607906 0.00004398 6.60383511 -0.00137234 C7.89064175 0.00222294 9.17744839 0.00581821 10.50324917 0.00952244 C11.86298527 0.00980431 13.22272153 0.00964658 14.58245754 0.00907993 C18.28477281 0.00879196 21.98705595 0.01468871 25.68936372 0.02165389 C29.55444283 0.0278874 33.41952261 0.02849123 37.28460598 0.0296793 C44.60860185 0.03279262 51.93258287 0.04100602 59.25657219 0.05102879 C67.5925895 0.06218989 75.92860751 0.06770037 84.26463044 0.07272422 C101.4170139 0.08318864 118.5693829 0.1007881 135.72175503 0.12304783 C135.90846157 7.82876682 135.90846157 7.82876682 134.22810268 10.47729588 C133.53764858 11.10676121 132.84719448 11.73622654 132.13581753 12.38476658 C130.99415127 13.46383274 130.99415127 13.46383274 129.82942104 14.56469822 C128.60050137 15.67639378 128.60050137 15.67639378 127.34675503 16.81054783 C125.67617577 18.40144405 124.01078425 19.99780587 122.35066128 21.59961033 C121.14434048 22.76024998 121.14434048 22.76024998 119.91364956 23.94433689 C115.26463596 28.56538805 111.41932024 33.71962721 107.72175503 39.12304783 C107.07182583 40.06301609 107.07182583 40.06301609 106.40876675 41.02197361 C86.19987977 70.50847927 75.39230111 103.85019761 63.31867886 137.1992197 C58.46003801 150.61724841 53.56672237 164.01919471 48.53425503 177.37304783 C48.24623013 178.13750217 47.95820522 178.90195652 47.66145229 179.68957615 C46.4236258 182.97444676 45.18576318 186.2593037 43.94749355 189.5440073 C41.01094383 197.34033439 38.0969508 205.14503824 35.18659878 212.95117283 C34.81605027 213.94503907 34.81605027 213.94503907 34.43801594 214.95898342 C33.14781211 218.41969267 31.85780482 221.88047514 30.56785488 225.34127903 C21.18718415 250.50759986 11.780332 275.6640119 2.34675503 300.81054783 C2.06740612 301.55519291 1.78805721 302.29983799 1.50024319 303.06704807 C-1.05436929 309.87656077 -3.60931795 316.6859473 -6.16459751 323.49520969 C-10.12311526 334.04382136 -14.08017353 344.59297942 -18.03605747 355.14257908 C-18.45336439 356.25545575 -18.45336439 356.25545575 -18.87910175 357.39081478 C-20.28367513 361.13656309 -21.68822289 364.882321 -23.09275913 368.62808323 C-25.62315033 375.3763544 -28.1537689 382.12454031 -30.68436909 388.87273312 C-32.09067024 392.62283457 -33.49695688 396.37294147 -34.90324497 400.12304783 C-35.4657449 401.62304785 -36.0282449 403.12304785 -36.59074497 404.62304783 C-36.86918247 405.36554783 -37.14761997 406.10804783 -37.43449497 406.87304783 C-38.27824497 409.12304783 -39.12199497 411.37304783 -39.96574497 413.62304783 C-40.24418279 414.36554877 -40.5226206 415.10804972 -40.80949593 415.87305069 C-41.37199247 417.37304126 -41.93448929 418.87303172 -42.49698639 420.37302208 C-43.90329158 424.12316554 -45.30959192 427.87331081 -46.7158823 431.62345982 C-49.24646812 438.37174873 -51.77708768 445.12002498 -54.30788994 451.86823273 C-55.71339699 455.61592246 -57.11887542 459.36362294 -58.52433872 463.11132908 C-58.80265474 463.85346464 -59.08097076 464.5956002 -59.3677206 465.36022472 C-63.31821133 475.89446467 -67.26708773 486.42930864 -71.21498585 496.96452045 C-83.07860343 528.62257973 -94.96384041 560.27228599 -106.89326572 591.90561008 C-115.49615065 614.71854043 -124.06680873 637.54340952 -132.62182713 660.37432957 C-141.39974954 683.79972506 -150.2025768 707.21559901 -159.02824497 730.62304783 C-159.3024263 731.35023895 -159.57660763 732.07743008 -159.85909748 732.8266573 C-160.40720068 734.28035117 -160.95530433 735.73404488 -161.50340843 737.18773842 C-162.82815701 740.70130721 -164.15284427 744.21489911 -165.47746372 747.72851658 C-165.85864511 748.73960767 -165.85864511 748.73960767 -166.24752712 749.77112484 C-171.3850374 763.39931817 -176.51256123 777.03127056 -181.61247349 790.67358494 C-182.16508286 792.15154721 -182.71773433 793.62949375 -183.27043247 795.10742283 C-183.52954914 795.80033924 -183.78866581 796.49325565 -184.0556345 797.20716953 C-185.69626186 801.58775943 -187.35969536 805.95909714 -189.03605747 810.32617283 C-198.91241052 836.11474757 -205.48977897 861.27617622 -194.75090122 887.95117283 C-191.00643428 896.01617855 -185.91479212 901.90283734 -179.00090122 907.43164158 C-177.27824497 910.12304783 -177.27824497 910.12304783 -177.27824497 921.12304783 C-239.97824497 921.12304783 -302.67824497 921.12304783 -367.27824497 921.12304783 C-366.58962585 917.6799522 -365.98105866 915.05976774 -364.7345438 911.88818455 C-364.41883427 911.07908131 -364.10312473 910.26997807 -363.77784824 909.43635654 C-363.43379948 908.56726154 -363.08975071 907.69816654 -362.73527622 906.80273533 C-362.37575871 905.8852602 -362.01624119 904.96778507 -361.6458292 904.02250767 C-360.46500082 901.01268516 -359.27802579 898.00533029 -358.09074497 894.99804783 C-357.25921271 892.88347489 -356.42791633 890.76880919 -355.59684849 888.65405369 C-350.46916167 875.61916705 -345.29548203 862.60300162 -340.07756138 849.60400486 C-334.16717988 834.87615328 -328.31662547 820.12460668 -322.46574497 805.37304783 C-321.92586248 804.01197244 -321.38597599 802.65089863 -320.84608555 801.28982639 C-318.64651901 795.74459844 -316.44709615 790.19931353 -314.24795628 784.65391636 C-310.49486571 775.19005084 -306.74062116 765.72664402 -302.98527622 756.26367283 C-302.7287446 755.61724575 -302.47221298 754.97081867 -302.20790768 754.30480289 C-300.91517923 751.04731115 -299.62242826 747.78982834 -298.32966709 744.53234959 C-295.98971223 738.63613737 -293.64995832 732.73984541 -291.31018734 726.84356022 C-290.00788127 723.56171956 -288.70556248 720.27988395 -287.40324497 716.99804783 C-286.88241158 715.68554785 -286.36157824 714.37304785 -285.84074497 713.06054783 C-260.05949497 648.09179783 -234.27824497 583.12304783 -57.71574497 138.18554783 C-57.45792649 137.53584522 -57.20010801 136.88614262 -56.93447685 136.21675205 C-56.41370402 134.9044046 -55.89293109 133.59205719 -55.37215805 132.27970982 C-54.06914815 128.9961262 -52.76614007 125.71254185 -51.46313572 122.42895603 C-49.13045195 116.55057143 -46.7977563 110.67219155 -44.46499062 104.79383945 C-43.17747247 101.54941256 -41.88996526 98.30498132 -40.60246372 95.06054783 C-40.34695932 94.41669132 -40.09145493 93.77283482 -39.82820797 93.10946751 C-36.25295659 84.09997633 -32.67821998 75.09028104 -29.10383701 66.08044529 C-27.09629161 61.02009479 -25.08860929 55.95979862 -23.08089733 50.8995142 C-21.71508691 47.45706259 -20.34935364 44.01458043 -18.98381138 40.57202244 C-18.46346916 39.26025374 -17.94312415 37.94848614 -17.42277622 36.6367197 C-17.1713505 36.00288616 -16.91992477 35.36905262 -16.66088009 34.716012 C-14.59164083 29.50006061 -12.51979103 24.28514817 -10.4477396 19.07031345 C-9.38875779 16.40155328 -8.33346063 13.73137664 -7.27970982 11.06054783 C-6.73108491 9.67511514 -6.18242379 8.28969679 -5.63371372 6.90429783 C-5.19051792 5.78087986 -4.74732212 4.65746189 -4.29069614 3.50000095 C-2.86581727 0.15478256 -2.86581727 0.15478256 0 0 Z " fill="#002664" transform="translate(994.278244972229,74.87695217132568)"/>
<path d="M0 0 C46.2 0 92.4 0 140 0 C144.49944639 8.99889278 144.49944639 8.99889278 145.85253906 12.57202148 C146.16163208 13.38175919 146.4707251 14.19149689 146.78918457 15.02577209 C147.11140991 15.88222824 147.43363525 16.73868439 147.765625 17.62109375 C148.29053528 19.00010109 148.29053528 19.00010109 148.8260498 20.40696716 C149.57811746 22.38366626 150.32838993 24.36104914 151.07702637 26.33905029 C153.0944872 31.66824163 155.12613183 36.99202667 157.15625 42.31640625 C157.56784363 43.39684204 157.97943726 44.47727783 158.40350342 45.5904541 C162.13341633 55.37259145 165.93065623 65.12750483 169.75 74.875 C176.15378474 91.23095085 182.49342708 107.61114347 188.8125 124 C195.75567789 142.00590192 202.70769512 160.00826104 209.6875 178 C210.07478271 178.99837891 210.46206543 179.99675781 210.86108398 181.02539062 C213.57339761 188.01718262 216.28657917 195.00863764 219 202 C222.10478984 209.9997583 225.20915831 217.99967979 228.3125 226 C228.69981293 226.99845947 229.08712585 227.99691895 229.48617554 229.02563477 C236.47854467 247.05396518 243.44258939 265.09317091 250.4019165 283.13427734 C259.13313055 305.76757053 267.89661366 328.38822924 276.67333984 351.00390625 C281.01521373 362.19253736 285.35286268 373.38280746 289.69134521 384.57275391 C290.88144454 387.64226237 292.07157081 390.71176038 293.26171875 393.78125 C293.654198 394.79348633 294.04667725 395.80572266 294.4510498 396.84863281 C296.79499704 402.89348594 299.13986336 408.93798159 301.48550415 414.98217773 C310.8154357 439.0234748 320.12074717 463.07411162 329.4019165 487.13427734 C338.13313055 509.76757053 346.89661366 532.38822924 355.67333984 555.00390625 C360.01521373 566.19253736 364.35286268 577.38280746 368.69134521 588.57275391 C369.88144454 591.64226237 371.07157081 594.71176038 372.26171875 597.78125 C372.85043762 599.29960449 372.85043762 599.29960449 373.4510498 600.84863281 C375.79499704 606.89348594 378.13986336 612.93798159 380.48550415 618.98217773 C389.8154357 643.0234748 399.12074717 667.07411162 408.4019165 691.13427734 C417.13313055 713.76757053 425.89661366 736.38822924 434.67333984 759.00390625 C438.22046743 768.14454531 441.76455321 777.28636389 445.30892944 786.42807007 C446.49924709 789.49805815 447.68966855 792.56800595 448.88012695 795.63793945 C452.42438417 804.77785609 455.96839162 813.9178691 459.51087952 823.05847168 C460.68314539 826.08314077 461.855602 829.10773587 463.02807617 832.13232422 C464.58368984 836.14537531 466.13843014 840.15876327 467.69262695 844.17236328 C471.81457445 854.81265809 475.9536106 865.44606787 480.11552429 876.07078743 C481.83057118 880.45081088 483.54216645 884.83218527 485.25445557 889.21328735 C486.20535772 891.64303089 487.15809958 894.0720553 488.11273193 896.50033569 C489.4377174 899.87088156 490.7565888 903.24376078 492.07421875 906.6171875 C492.47320877 907.62722336 492.87219879 908.63725922 493.28327942 909.67790222 C493.82307686 911.06493095 493.82307686 911.06493095 494.3737793 912.47998047 C494.68953415 913.2848288 495.005289 914.08967712 495.33061218 914.91891479 C496 917 496 917 496 920 C435.61 920 375.22 920 313 920 C313 916.37 313 912.74 313 909 C316.5 905.5 316.5 905.5 318.7109375 903.84765625 C328.74482063 895.74863454 334.99747547 881.43475913 336.75 868.875 C338.72462539 846.16680797 331.82875163 826.36132992 323.90234375 805.39013672 C322.9315305 802.81863734 321.96536748 800.24542357 321 797.671875 C316.47209584 785.60491475 311.9156418 773.54887019 307.35041809 761.49598694 C302.16417693 747.80105297 297.00308778 734.09665565 291.84179688 720.39230347 C289.34323023 713.75815554 286.84368993 707.12437445 284.3441658 700.49058723 C283.78928464 699.01791747 283.23441149 697.54524469 282.67954636 696.07256889 C276.95566018 680.88072094 271.22819581 665.6902234 265.5 650.5 C254.64584751 621.71608912 243.79830405 592.92968981 232.95199585 564.14282227 C228.59008962 552.56601867 224.22796237 540.98929837 219.86566162 529.41264343 C219.32499159 527.97781382 218.78432183 526.54298411 218.24365234 525.1081543 C217.97612656 524.398194 217.70860077 523.6882337 217.43296814 522.95675945 C215.80914985 518.64743564 214.18541358 514.33808094 212.56174469 510.02870083 C211.20655245 506.43188498 209.85133103 502.83508013 208.49609375 499.23828125 C208.22783028 498.52630899 207.9595668 497.81433674 207.68317413 497.08078957 C203.90460122 487.05262434 200.12436573 477.02508714 196.34307671 466.99794579 C181.8242016 428.49618949 167.3530568 389.97674509 152.9142313 351.44489956 C148.5302792 339.74578965 144.14352148 328.04773277 139.75628662 316.34985352 C138.50032275 313.0008606 137.24451961 309.65180746 135.98876953 306.30273438 C131.71621893 294.90806875 127.44254544 283.51382614 123.16691589 272.12031555 C84.77293484 169.80943335 84.77293484 169.80943335 70.40557861 130.5904541 C67.5739498 122.86445816 64.73297409 115.1418989 61.89007568 107.42004395 C61.07151347 105.19443935 60.25536809 102.96796577 59.43994141 100.74121094 C48.24564946 70.22768741 33.69427506 42.99485172 11.6875 18.9375 C11.20804932 18.41317383 10.72859863 17.88884766 10.23461914 17.34863281 C7.83510931 14.78173464 5.52045685 12.65208157 2.64453125 10.62890625 C1.77183594 9.76136719 0.89914063 8.89382812 0 8 C0 5.36 0 2.72 0 0 Z " fill="#002664" transform="translate(76,76)"/>
<path d="M0 0 C126.39 0 252.78 0 383 0 C383 2.64 383 5.28 383 8 C382.67 8 382.34 8 382 8 C382 5.69 382 3.38 382 1 C317.98 1 253.96 1 188 1 C193.445 14.365 193.445 14.365 199 28 C201.08621385 33.35235348 203.16872568 38.70198223 205.20993042 44.07098389 C206.77048535 48.17388541 208.34256771 52.27237256 209.9140625 56.37109375 C210.24335251 57.23027405 210.57264252 58.08945435 210.91191101 58.97467041 C214.87205936 69.29366231 218.9039678 79.58452194 222.9375 89.875 C223.31599091 90.84083008 223.69448181 91.80666016 224.08444214 92.80175781 C225.60882944 96.69158208 227.13334843 100.58135466 228.6582489 104.47097778 C232.49056144 114.24756109 236.30913778 124.02948648 240.125 133.8125 C240.45236145 134.65174011 240.7797229 135.49098022 241.11700439 136.35565186 C243.82064095 143.2868534 243.82064095 143.2868534 245.06494141 146.47711182 C247.33697577 152.30188716 249.61136595 158.12573901 251.88671875 163.94921875 C258.63431633 181.22166359 265.36089327 198.50198209 272.05706787 215.79443359 C280.30721483 237.09918762 288.62396537 258.37710157 296.97354126 279.64306641 C297.38317108 280.68640137 297.7928009 281.72973633 298.21484375 282.8046875 C298.62068695 283.83835449 299.02653015 284.87202148 299.44467163 285.93701172 C305.02395276 300.15113895 310.56995297 314.37824892 316.11621094 328.60528564 C318.36801455 334.38103612 320.62279096 340.15562003 322.87890625 345.9296875 C330.07082661 364.33872782 337.23608163 382.75783768 344.375 401.1875 C350.57725854 417.19807983 356.80210765 433.19955775 363.0625 449.1875 C363.4321286 450.13147644 363.8017572 451.07545288 364.18258667 452.04803467 C366.78727703 458.69912644 369.39346225 465.34963203 372 472 C374.98020866 479.60375876 377.9596995 487.20779779 380.9375 494.8125 C381.30789398 495.75834961 381.67828796 496.70419922 382.05990601 497.67871094 C388.26329917 513.52383882 394.41956887 529.38695636 400.56271362 545.25552368 C407.0814905 562.09108974 413.65859049 578.90320258 420.25970459 595.70663452 C426.38014283 611.28893864 432.4577442 626.88722105 438.5 642.5 C445.02131005 659.34961301 451.58491002 676.18206724 458.1875 693 C458.60788544 694.07086853 459.02827087 695.14173706 459.46139526 696.24505615 C460.30211098 698.38660998 461.14283458 700.52816071 461.98356628 702.66970825 C462.59884941 704.23699173 462.59884941 704.23699173 463.2265625 705.8359375 C463.63300491 706.87120575 464.03944733 707.906474 464.45820618 708.97311401 C468.33635178 718.85315512 472.20365114 728.73740699 476.0625 738.625 C476.38151276 739.44239655 476.70052551 740.25979309 477.02920532 741.10195923 C482.89945728 756.14759099 488.73478597 771.20672171 494.56765747 786.26687622 C501.43836625 804.00474344 508.35612902 821.72390532 515.30224609 839.43237305 C515.66345551 840.35378082 516.02466492 841.2751886 516.39682007 842.22451782 C517.06427129 843.92693827 517.73221627 845.62916527 518.40078735 847.33114624 C520.31149326 852.20486903 522.17304276 857.09424269 524 862 C525.7307115 859.40393275 526.80168074 857.24097466 527.94506836 854.37231445 C528.51475342 852.95026199 528.51475342 852.95026199 529.09594727 851.4994812 C529.71167603 849.94706223 529.71167603 849.94706223 530.33984375 848.36328125 C530.98953125 846.73690231 530.98953125 846.73690231 531.65234375 845.07766724 C533.08414918 841.49063155 534.51088434 837.90160257 535.9375 834.3125 C536.69072763 832.42203 537.44449455 830.53177571 538.19834232 828.64155293 C545.23148213 811.00619853 552.22693847 793.35586786 559.20581055 775.69897461 C566.69689024 756.74824196 574.2221001 737.81112788 581.75 718.875 C582.41716615 717.19671672 583.08433127 715.51843303 583.75149536 713.84014893 C586.46377149 707.01736316 589.17615347 700.19461949 591.88871765 693.37194824 C596.50226514 681.76786725 601.11482397 670.16339378 605.7265625 658.55859375 C606.36389154 656.95485431 607.00122065 655.35111489 607.6385498 653.74737549 C608.59398557 651.34316571 609.5494203 648.93895553 610.50485229 646.53474426 C622.51361304 616.31646163 634.52606865 586.09964901 646.54032898 555.88355255 C656.90387858 529.81899345 667.26569544 503.75374659 677.625 477.6875 C677.94297546 476.88740509 678.26095093 476.08731018 678.58856201 475.26296997 C681.47201919 468.00755148 684.35544197 460.75211933 687.23883057 453.49667358 C691.73980885 442.17090355 696.24094046 430.84519447 700.7421875 419.51953125 C701.06210789 418.71457403 701.38202827 417.90961681 701.71164322 417.08026695 C703.32792198 413.01352226 704.94420333 408.9467786 706.56048584 404.8800354 C709.46746385 397.56575786 712.37441896 390.25147121 715.28137589 382.93718529 C716.89591633 378.87478982 718.51045824 374.81239494 720.125 370.75 C720.77083334 369.125 721.41666667 367.5 722.0625 365.875 C723.35416667 362.625 724.64583333 359.375 725.9375 356.125 C726.41703031 354.91843986 726.41703031 354.91843986 726.90624809 353.68750477 C727.55208776 352.06248886 728.19792745 350.43747297 728.84376717 348.81245708 C730.45825389 344.75020053 732.07274012 340.68794379 733.68722534 336.62568665 C736.59462849 329.31027936 739.50203508 321.99487344 742.40946007 314.67947483 C744.02557998 310.61314044 745.641697 306.5468049 747.2578125 302.48046875 C747.57774296 301.67548635 747.89767342 300.87050396 748.22729874 300.04112816 C752.72509678 288.72412648 757.22273398 277.40706089 761.72026825 266.08995438 C772.54376609 238.85493944 783.36745822 211.62000205 794.1953125 184.38671875 C794.70798581 183.09728552 794.70798581 183.09728552 795.23101616 181.78180313 C798.6859064 173.09239266 802.14090997 164.40302725 805.59607983 155.71372795 C812.869946 137.42082466 820.14210319 119.12724505 827.41015625 100.83203125 C851.15533627 41.06107485 851.15533627 41.06107485 858.79782104 21.91732788 C859.46206777 20.25302514 860.12576517 18.58850302 860.78884888 16.92373657 C861.65569704 14.74794796 862.52472165 12.57304358 863.39453125 10.3984375 C863.85706299 9.24005371 864.31959473 8.08166992 864.79614258 6.88818359 C865.77040335 4.55082708 866.86753194 2.26493612 868 0 C883.84 0 899.68 0 916 0 C909.50531831 17.38282453 902.78533804 34.65380579 895.875 51.875 C895.24463333 53.44596939 895.24463333 53.44596939 894.60153198 55.04867554 C893.95850632 56.65109604 893.95850632 56.65109604 893.30249023 58.28588867 C892.41125047 60.5069806 891.52005663 62.72809096 890.62890625 64.94921875 C890.17585617 66.07837204 889.72280609 67.20752533 889.25602722 68.37089539 C884.00485195 81.4676992 878.80128036 94.58334144 873.6004715 107.70020294 C872.80939512 109.69533064 872.01820876 111.6904147 871.22698975 113.68548584 C869.08960083 119.07500956 866.95237626 124.46459839 864.81561279 129.85437012 C861.12224872 139.17050908 857.42711051 148.48594239 853.73046875 157.80078125 C853.47323847 158.44895498 853.21600819 159.09712872 852.95098305 159.76494408 C851.65316979 163.03517047 850.35532443 166.30538413 849.0574646 169.57559204 C846.71531551 175.47713287 844.37345187 181.37878697 842.03156471 187.28043175 C840.72938798 190.56195906 839.42719308 193.84347917 838.125 197.125 C837.60416658 198.43749997 837.08333325 199.74999997 836.5625 201.0625 C810.78125 266.03125 785 331 607.65623474 777.90628815 C607.13545199 779.21866088 606.61466952 780.53103372 606.09388733 781.84340668 C604.79103235 785.12660478 603.48817252 788.40980094 602.18530273 791.69299316 C599.85076195 797.57597857 597.51625322 803.45897669 595.18193054 809.34204865 C593.89214479 812.59262546 592.60232996 815.84319073 591.3125 819.09375 C591.05663116 819.73857834 590.80076233 820.38340668 590.53713989 821.04777527 C586.99363927 829.97777254 583.44878848 838.90723286 579.9029541 847.83630371 C577.92105879 852.82710303 575.9395362 857.8180503 573.95809174 862.80902863 C572.36118295 866.83131745 570.76379724 870.8534164 569.16601562 874.87535858 C568.41197299 876.77371224 567.6582019 878.67217347 566.90454102 880.57067871 C566.00116517 882.84632255 565.09741137 885.12181643 564.19311523 887.39709473 C559.75441774 898.58235706 555.38529965 909.79312312 551 921 C532.85 921 514.7 921 496 921 C492.761875 912.605625 489.52375 904.21125 486.1875 895.5625 C478.90986618 876.70287718 471.62340316 857.84675545 464.3125 839 C463.92666748 838.00533722 463.54083496 837.01067444 463.14331055 835.98587036 C460.42953381 828.99032404 457.71487871 821.99511872 455 815 C451.89521016 807.0002417 448.79084169 799.00032021 445.6875 791 C445.30018707 790.00154053 444.91287415 789.00308105 444.51382446 787.97436523 C437.52145533 769.94603482 430.55741061 751.90682909 423.5980835 733.86572266 C414.86686945 711.23242947 406.10338634 688.61177076 397.32666016 665.99609375 C392.98478627 654.80746264 388.64713732 643.61719254 384.30865479 632.42724609 C383.11855546 629.35773763 381.92842919 626.28823962 380.73828125 623.21875 C380.14956238 621.70039551 380.14956238 621.70039551 379.5489502 620.15136719 C377.20500296 614.10651406 374.86013664 608.06201841 372.51449585 602.01782227 C363.1845643 577.9765252 353.87925283 553.92588838 344.5980835 529.86572266 C338.18374496 513.23829787 331.75780627 496.61544618 325.3125 480 C324.92494537 479.000896 324.53739075 478.00179199 324.13809204 476.97241211 C321.42605496 469.98135181 318.71313783 462.99063317 316 456 C312.89521016 448.0002417 309.79084169 440.00032021 306.6875 432 C306.30018707 431.00154053 305.91287415 430.00308105 305.51382446 428.97436523 C298.52145533 410.94603482 291.55741061 392.90682909 284.5980835 374.86572266 C275.86686945 352.23242947 267.10338634 329.61177076 258.32666016 306.99609375 C253.98478627 295.80746264 249.64713732 284.61719254 245.30865479 273.42724609 C244.11855546 270.35773763 242.92842919 267.28823962 241.73828125 264.21875 C241.345802 263.20651367 240.95332275 262.19427734 240.5489502 261.15136719 C238.20500296 255.10651406 235.86013664 249.06201841 233.51449585 243.01782227 C224.1845643 218.9765252 214.87925283 194.92588838 205.5980835 170.86572266 C197.25286551 149.23301905 188.8793611 127.6114053 180.49003601 105.99577332 C177.73257113 98.89025953 174.97888336 91.78328894 172.2265625 84.67578125 C171.01571224 81.54986409 169.8047906 78.42397459 168.59384155 75.2980957 C167.85873012 73.40008769 167.12385969 71.50198631 166.38931274 69.60375977 C157.65877086 47.04330112 148.81521158 24.52776293 140 2 C93.8 1.67 47.6 1.34 0 1 C0 0.67 0 0.34 0 0 Z " fill="#3CB6E3" transform="translate(76,75)"/>
</svg>
